<?xml version="1.0" encoding="utf-8"?>
<!-- Generator: Adobe Illustrator 16.0.0, SVG Export Plug-In . SVG Version: 6.00 Build 0)  -->
<!DOCTYPE svg PUBLIC "-//W3C//DTD SVG 1.1//EN" "http://www.w3.org/Graphics/SVG/1.1/DTD/svg11.dtd">
<svg version="1.1" id="Ebene_1" xmlns="http://www.w3.org/2000/svg" xmlns:xlink="http://www.w3.org/1999/xlink" x="0px" y="0px"
	 width="170.0791px" height="170.0791px" viewBox="0 0 170.0791 170.0791" enable-background="new 0 0 170.0791 170.0791"
	 xml:space="preserve">
<g>
	<polygon fill="#E31C21" points="0,0 170.0791,0 170.0791,170.0791 0,170.0791 0,0 	"/>
	<path fill-rule="evenodd" clip-rule="evenodd" fill="#FFFFFF" d="M85.36084,85.79102h4.94775
		c5.36719,0,9.61914,2.43945,9.61914,8.15234c0,5.4375-4.11328,8.29395-9.5498,8.29395h-5.01709V85.79102L85.36084,85.79102
		L85.36084,85.79102L85.36084,85.79102z M91.70312,108.23145c11.49902,0,18.53613-5.99414,18.53613-14.42676
		c0-7.45703-6.76074-11.63867-12.82129-11.91748v-0.13965c3.41211-0.9043,9.75586-4.11035,9.75586-11.91553
		c0-6.62109-5.78613-10.38428-14.00781-10.38428H75.53418v48.78369H91.70312L91.70312,108.23145L91.70312,108.23145
		L91.70312,108.23145z M85.36084,65.44092h5.0874c4.25098,0,7.45605,1.88232,7.45605,6.20166
		c0,4.52979-3.83105,8.15332-9.47656,8.15332h-3.06689V65.44092L85.36084,65.44092L85.36084,65.44092L85.36084,65.44092z"/>
	<polygon fill="#FFFFFF" points="122.86523,108.23145 122.86523,59.44775 113.03906,59.44775 113.03906,108.23145 
		122.86523,108.23145 122.86523,108.23145 122.86523,108.23145 	"/>
	<polygon fill="#FFFFFF" points="136.17285,108.23145 136.16797,67.70605 126.75684,67.70605 126.75684,59.44775 
		156.05859,59.44775 156.05859,67.70801 145.83691,67.70752 145.8418,108.23145 136.17285,108.23145 136.17285,108.23145 	"/>
	<path fill="#FFFFFF" d="M51.6709,86.57324h13.69873c0.34717-5.28613-1.52979-8.90186-6.11914-8.90186
		C53.96582,77.67139,51.60107,81.91357,51.6709,86.57324L51.6709,86.57324L51.6709,86.57324z M54.92969,62.375l-3.06592,5.92383
		c-2.36963-1.25488-6.34229-2.71875-10.10596-2.71875c-10.03467,0-17.28271,7.03857-17.28271,18.12012
		c0,11.56836,8.01514,18.39941,17.56152,18.39941c1.09424,0,2.1626-0.08984,3.19336-0.24805
		c-2.26318-3.10938-3.57227-7.12012-3.57227-11.80273c0-10.70801,7.78906-17.52393,17.73145-17.52393
		c10.84717,0,15.36719,8.69336,14.67139,19.05322H51.53271c-0.20947,6.53711,4.37988,11.40332,10.15137,11.40332
		c2.9502,0,5.62354-0.17285,8.32715-2.16113v6.05762c-3.55078,1.80469-7.0415,2.08496-9.99609,2.08496
		c-3.08203,0-5.93555-0.63965-8.42969-1.83496c-2.90137,1.1123-6.55957,1.93945-9.96582,1.93945
		c-16.93506,0-27.59766-11.15039-27.59766-25.50684c0-13.31055,10.5918-24.94922,27.73584-24.94922
		C46.84619,58.61133,51.58545,60.42383,54.92969,62.375L54.92969,62.375L54.92969,62.375z"/>
</g>
</svg>
