<?xml version="1.0" encoding="utf-8"?>
<!-- Generator: Adobe Illustrator 16.0.0, SVG Export Plug-In . SVG Version: 6.00 Build 0)  -->
<!DOCTYPE svg PUBLIC "-//W3C//DTD SVG 1.1//EN" "http://www.w3.org/Graphics/SVG/1.1/DTD/svg11.dtd">
<svg version="1.1" id="Layer_1" xmlns="http://www.w3.org/2000/svg" xmlns:xlink="http://www.w3.org/1999/xlink" x="0px" y="0px"
	 width="450.60938px" height="410.97998px" viewBox="0 0 450.60938 410.97998" enable-background="new 0 0 450.60938 410.97998"
	 xml:space="preserve">
<g class="substep">
	<path fill="#3298CB" d="M134.56982,32.34033l32.27002,50.5498c-39.48047,25.30029-66,69.14014-67.18018,119.12988
		l-27.24023-13.33984l-32.77979,14.66016C40.36963,131.58008,78.07959,68.52002,134.56982,32.34033z"/>
	<g>
		<path fill="#F1F1F2" d="M60.36816,170.59814c0.25781-1.41455,0.71289-2.56152,1.36426-3.43945
			c0.65234-0.87842,1.41699-1.54248,2.29688-1.99414c0.87988-0.45117,1.83887-0.71484,2.875-0.79199
			c1.03809-0.07666,2.07129-0.02148,3.09961,0.16553c1.41602,0.25781,2.61133,0.69482,3.58887,1.31152
			c0.97852,0.6167,1.73242,1.36572,2.2627,2.24609c0.53125,0.88086,0.86523,1.8916,1.00195,3.0332
			c0.13867,1.1416,0.08789,2.36816-0.15137,3.68018l-0.54102,2.97168l10.99805,2.00293l-1.01172,5.55664l-27.55371-5.01758
			L60.36816,170.59814z M72.52441,174.56592c0.20117-1.10596,0.03027-2.06104-0.51562-2.86475
			c-0.54395-0.80322-1.52441-1.33398-2.93945-1.5918c-1.38867-0.25293-2.49805-0.14893-3.32617,0.31104
			c-0.82715,0.46143-1.36816,1.38574-1.62109,2.7749l-0.42188,2.31543l8.37402,1.5249L72.52441,174.56592z"/>
		<path fill="#F1F1F2" d="M71.125,155.40234l2.71289,0.78223l0.02246-0.0752c-0.82812-0.81055-1.42871-1.67725-1.80176-2.60156
			c-0.37305-0.92383-0.4043-1.92627-0.09277-3.00684c0.04395-0.15088,0.0957-0.30566,0.15527-0.46533
			s0.12402-0.31152,0.19238-0.45508l4.97461,1.43457c-0.10449,0.26953-0.20117,0.53418-0.29004,0.79395
			c-0.08789,0.26025-0.17285,0.52881-0.25195,0.80518c-0.13086,0.45215-0.19824,0.92236-0.20312,1.41113
			c-0.00488,0.48828,0.08301,0.96289,0.2627,1.42285c0.18066,0.46045,0.4707,0.87061,0.87012,1.23096
			c0.40039,0.35986,0.93848,0.6377,1.61719,0.8335l12.17383,3.51025l-1.5,5.20117l-20.27734-5.84717L71.125,155.40234z"/>
		<path fill="#F1F1F2" d="M87.65039,147.01611c0.58398,0.22998,1.16602,0.41064,1.74707,0.54053
			c0.58105,0.13037,1.12305,0.18262,1.625,0.15527c0.50293-0.02686,0.94434-0.14844,1.32422-0.36426
			c0.37988-0.21533,0.66113-0.55469,0.84277-1.01709c0.33496-0.85156,0.27539-1.59131-0.17969-2.2207
			c-0.45508-0.62842-1.27441-1.26025-2.45703-1.89502l1.78125-4.52588c2.24902,0.99805,3.75,2.29199,4.50098,3.87988
			c0.75195,1.58887,0.65332,3.5874-0.2959,5.99658c-0.71777,1.82471-1.58301,3.12842-2.59375,3.91064
			c-1.00977,0.78271-2.10938,1.22119-3.2998,1.31445c-1.18848,0.09473-2.42578-0.04834-3.70898-0.42773
			c-1.28418-0.37891-2.54688-0.81299-3.78809-1.30127c-1.31348-0.51758-2.54297-1.10693-3.6875-1.76855
			c-1.14453-0.66113-2.08398-1.45264-2.81738-2.37402c-0.7334-0.9209-1.17871-2.00244-1.33594-3.24512
			c-0.15723-1.24219,0.09961-2.71484,0.76953-4.41797c0.5752-1.45996,1.28418-2.56494,2.12793-3.31494
			c0.84277-0.74951,1.80176-1.22217,2.87598-1.41748c1.0752-0.19482,2.26562-0.14795,3.57031,0.14062
			c1.30566,0.28955,2.71289,0.73096,4.2207,1.32471l1.13184,0.44531l-3.92285,9.96436L87.65039,147.01611z M83.06738,139.43652
			c-0.60059-0.15186-1.1377-0.21631-1.61035-0.19189c-0.47363,0.02441-0.87793,0.16064-1.21484,0.40723
			c-0.33594,0.24756-0.60449,0.62646-0.80566,1.13721c-0.20117,0.51123-0.25098,0.97607-0.14941,1.39551
			c0.10254,0.41992,0.30371,0.80127,0.60352,1.14404c0.30078,0.34375,0.66602,0.64893,1.09375,0.91553
			c0.42871,0.26758,0.875,0.49219,1.33691,0.67383l0.7666,0.30176l2.02637-5.146
			C84.35059,139.80127,83.66797,139.58887,83.06738,139.43652z"/>
		<path fill="#F1F1F2" d="M96.32422,131.74512c0.81152,0.42432,1.57812,0.55273,2.2998,0.38428
			c0.72266-0.16748,1.2959-0.65723,1.7207-1.46875c0.3877-0.74121,0.51172-1.42871,0.37109-2.06348
			c-0.14062-0.6333-0.58105-1.14502-1.32227-1.5332c-0.60254-0.31494-1.15137-0.38037-1.64648-0.19678
			c-0.49414,0.18408-0.95508,0.45947-1.38281,0.82568l-2.98047,2.73486c-1.1543,1.07812-2.33008,1.73242-3.52832,1.96143
			c-1.19727,0.22998-2.45605-0.00146-3.77637-0.69238c-0.76465-0.3999-1.42188-0.90576-1.97266-1.51904
			c-0.5498-0.61182-0.93457-1.33008-1.15332-2.15283c-0.21777-0.82275-0.25098-1.74707-0.09766-2.77393
			c0.15332-1.02637,0.55078-2.15332,1.19336-3.38184c1.13965-2.17725,2.44629-3.54541,3.91797-4.10352
			c1.47266-0.55762,3.05469-0.39404,4.74609,0.49072l0.76465,0.40039l-2.25488,4.30957
			c-0.97363-0.50928-1.76758-0.72559-2.38281-0.64941c-0.61621,0.07666-1.12988,0.50928-1.54199,1.29639
			c-0.31543,0.60303-0.42285,1.21777-0.32324,1.84521s0.48535,1.11719,1.15723,1.46875
			c0.46387,0.24268,0.95605,0.31641,1.47852,0.22021c0.52246-0.09521,1.12305-0.48193,1.80176-1.16016l2.48242-2.37549
			c1.29785-1.23877,2.52246-1.95654,3.67188-2.15186c1.14941-0.19482,2.43164,0.07715,3.84473,0.81641
			c0.99609,0.52148,1.76855,1.14697,2.31641,1.87598c0.54785,0.72949,0.9043,1.52881,1.07031,2.39697
			c0.16504,0.86914,0.13086,1.78076-0.10352,2.73535c-0.2334,0.95508-0.61719,1.94238-1.15039,2.96143
			c-0.70312,1.34424-1.41602,2.39551-2.1377,3.15381c-0.72168,0.75928-1.47363,1.26562-2.25586,1.52002
			c-0.78223,0.25488-1.59375,0.29541-2.43262,0.12207s-1.70996-0.49658-2.61328-0.96924l-0.66016-0.3457l2.25488-4.30957
			L96.32422,131.74512z"/>
		<path fill="#F1F1F2" d="M103.72852,115.06836c0.52246,0.34863,1.05273,0.64844,1.59375,0.89893
			c0.54004,0.25049,1.05859,0.4165,1.55469,0.49609c0.49707,0.08057,0.9541,0.05518,1.37109-0.0752
			c0.41699-0.12988,0.76367-0.40186,1.04004-0.81494c0.50781-0.76123,0.60645-1.49707,0.29492-2.2085
			c-0.31055-0.71045-0.97754-1.50195-2-2.37305l2.70117-4.04492c1.98633,1.45215,3.17871,3.03467,3.57617,4.74609
			c0.39746,1.7124-0.12305,3.64453-1.56055,5.79736c-1.08887,1.63086-2.21094,2.72119-3.36426,3.27197
			s-2.32129,0.74561-3.50293,0.58496c-1.18262-0.16016-2.36035-0.56201-3.53516-1.20508
			c-1.1748-0.64258-2.31641-1.33447-3.42578-2.0752c-1.17383-0.78418-2.25-1.62061-3.22852-2.50977s-1.72852-1.86182-2.25-2.91748
			s-0.72656-2.20703-0.61719-3.45459c0.10938-1.24707,0.67285-2.63184,1.68945-4.1543
			c0.87109-1.30518,1.79785-2.23438,2.78125-2.78857c0.9834-0.55371,2.02051-0.81201,3.1123-0.77539
			c1.0918,0.0376,2.24414,0.33594,3.45898,0.89453c1.21387,0.55957,2.49609,1.28955,3.84375,2.18994l1.01172,0.67529
			l-5.94727,8.90527L103.72852,115.06836z M100.85742,106.68945c-0.55371-0.27588-1.06543-0.45215-1.5332-0.52881
			s-0.8916-0.02979-1.27246,0.14014c-0.38086,0.17041-0.72461,0.48389-1.0293,0.94043s-0.45215,0.90088-0.44141,1.33252
			s0.12598,0.84717,0.34668,1.24561c0.22168,0.3999,0.5127,0.77539,0.875,1.12695c0.3623,0.35254,0.75098,0.66602,1.16406,0.94189
			l0.68457,0.45752l3.07129-4.59961C102.03418,107.31787,101.41309,106.96533,100.85742,106.68945z"/>
		<path fill="#F1F1F2" d="M104.83594,91.39893l1.8877,1.59473l0.05078-0.06006c-0.42773-1.11377-0.53027-2.17676-0.30957-3.18896
			c0.2207-1.01074,0.71094-1.96631,1.4707-2.86523c1.11426-1.31836,2.33008-2.02783,3.64844-2.12988
			c1.31738-0.10107,2.78613,0.53125,4.4043,1.89844l11.95508,10.10059l-3.49316,4.13477l-11.11621-9.3916
			c-0.83887-0.70898-1.54199-1.0625-2.10742-1.06152c-0.56641,0.00146-1.11035,0.31152-1.63379,0.93066
			c-1.23242,1.45801-0.95898,2.93848,0.81836,4.43994l10.69727,9.0376l-3.49414,4.13477L101.49512,95.354L104.83594,91.39893z"/>
		<path fill="#F1F1F2" d="M115.78711,70.70801l4.23242,4.31006l2.23926-2.19873l2.58398,2.63086l-2.23926,2.19873l7.99707,8.14404
			c0.58691,0.59766,1.0918,0.93506,1.5166,1.0127s0.91699-0.1582,1.47656-0.70801c0.14941-0.14648,0.29395-0.29736,0.43359-0.45361
			c0.14062-0.15576,0.2666-0.30713,0.37891-0.4541l2.63867,2.68652c-0.42969,0.42188-0.83105,0.84326-1.2041,1.26514
			c-0.37402,0.42236-0.78516,0.85254-1.23242,1.29248c-0.74707,0.73291-1.4082,1.28125-1.98438,1.646
			c-0.57617,0.36523-1.1416,0.5166-1.69629,0.45605c-0.55371-0.06055-1.125-0.29639-1.71289-0.70898
			c-0.58887-0.41162-1.25781-1.00049-2.00879-1.76562l-8.46484-8.62012l-1.95898,1.92383l-2.58398-2.63086l1.95898-1.92383
			l-4.23242-4.31006L115.78711,70.70801z"/>
	</g>
</g>
<g class="substep">
	<path fill="#37B34A" d="M259.0498,0.47021l-4.07031,59.87012C251.71973,60.11035,248.42969,60,245.11914,60
		c-28.79932,0-55.65967,8.41016-78.2793,22.89014l-32.27002-50.5498C166.50977,11.88037,204.44971,0,245.11914,0
		C249.7998,0,254.44922,0.16016,259.0498,0.47021z"/>
	<g>
		<path fill="#F1F1F2" d="M178.94922,29.96582l17.22949,23.2915l-5.46777,2.17188l-3.38965-5.02637l-6.92676,2.75098l0.9834,5.98291
			l-5.46777,2.17188l-3.44922-28.76514L178.94922,29.96582z M184.70117,46.46289l-7.16406-10.70264l-0.07324,0.0293
			l2.13379,12.70068L184.70117,46.46289z"/>
		<path fill="#F1F1F2" d="M199.75977,44.26221c0.16211,0.6333,0.36035,1.19678,0.59473,1.68994
			c0.23438,0.49365,0.53613,0.88184,0.90625,1.16504c0.36914,0.28369,0.81348,0.46631,1.33496,0.54883
			c0.52051,0.08301,1.13477,0.0332,1.84473-0.14893c0.83594-0.21387,1.51953-0.67871,2.05176-1.396
			c0.53125-0.71631,0.65137-1.64453,0.35938-2.78467c-0.15527-0.60791-0.37305-1.1123-0.65039-1.51367
			c-0.2793-0.40088-0.65332-0.72998-1.12402-0.98779c-0.4707-0.25684-1.05371-0.45166-1.74902-0.58447
			c-0.69531-0.13184-1.53809-0.23389-2.52734-0.3042c-1.32031-0.09326-2.48535-0.26758-3.49512-0.52197
			c-1.00977-0.25391-1.89551-0.62842-2.65527-1.12158c-0.76172-0.49365-1.38965-1.12891-1.88574-1.90625
			c-0.49609-0.77686-0.88672-1.72314-1.17188-2.83789c-0.6875-2.68506-0.45312-4.87744,0.7041-6.57812
			c1.15723-1.69971,3.04004-2.88428,5.64941-3.55225c1.2168-0.31152,2.37109-0.46582,3.46582-0.4624
			c1.09375,0.00293,2.09082,0.20703,2.99023,0.61084s1.67773,1.01465,2.33203,1.83203
			c0.65527,0.81787,1.14746,1.87256,1.47852,3.16406l0.19434,0.76025l-5.24316,1.34277
			c-0.33105-1.29199-0.81348-2.22705-1.44824-2.80762c-0.63477-0.57959-1.4834-0.7334-2.54785-0.46094
			c-0.60742,0.15576-1.0918,0.37451-1.45117,0.65527c-0.36035,0.28125-0.62305,0.59863-0.78906,0.95117
			c-0.16699,0.35303-0.24512,0.73096-0.23633,1.1333c0.00781,0.40283,0.06543,0.80713,0.16895,1.21191
			c0.21387,0.83643,0.57129,1.49365,1.07227,1.97314c0.5,0.479,1.39453,0.81055,2.68359,0.99268l4.68457,0.74365
			c1.15527,0.18994,2.12598,0.44775,2.91113,0.77295s1.44629,0.72266,1.98535,1.19238
			c0.53906,0.46924,0.97168,1.02637,1.29883,1.67139s0.59766,1.38574,0.8125,2.22168
			c0.73242,2.86279,0.43652,5.15869-0.88867,6.88818c-1.3252,1.72998-3.46973,2.97412-6.43359,3.73291
			c-3.09082,0.7915-5.47266,0.68701-7.14648-0.31543c-1.67383-1.00195-2.83203-2.75732-3.47363-5.26514l-0.28223-1.10205
			l5.47168-1.40137L199.75977,44.26221z"/>
		<path fill="#F1F1F2" d="M219.75781,31.02441l0.07812-0.00977l5.66895-12.02783l6.07031-0.771l-6.03711,12.86572l10.4209,14.80957
			l-6.30371,0.80029l-7.16797-10.67529l-1.66211,3.41357l1.04688,8.24951l-5.60352,0.71143l-3.52734-27.78369l5.60352-0.71143
			L219.75781,31.02441z"/>
	</g>
</g>
<g class="substep">
	<path fill="#CC2029" d="M441.91992,146.29004l-57.4707,17.28027c-17.12988-56.83008-68.15918-99.12012-129.46973-103.22998
		l4.07031-59.87012C345.65918,6.29004,417.72949,66.02002,441.91992,146.29004z"/>
	<g>
		<path fill="#F1F1F2" d="M318.88477,33.01221L315.25,61.75439l-5.45312-2.20703l1.02148-5.97607l-6.9082-2.7959l-3.42188,5.00488
			l-5.4541-2.20752l17.37891-23.18018L318.88477,33.01221z M311.64551,48.9126l2.21484-12.68652l-0.07227-0.02979l-7.23242,10.65625
			L311.64551,48.9126z"/>
		<path fill="#F1F1F2" d="M330.87012,46.44336l-1.2041,2.15771l0.06836,0.03857c1.01172-0.63281,2.03516-0.9375,3.07031-0.91357
			c1.03516,0.02344,2.06641,0.32227,3.09375,0.896c1.50684,0.84131,2.43652,1.89941,2.78809,3.17383
			s0.01074,2.83643-1.02148,4.68604l-7.62988,13.66504l-4.72656-2.63916l7.09473-12.70605
			c0.53516-0.95898,0.74805-1.71582,0.63867-2.271c-0.10938-0.55566-0.51758-1.03076-1.22559-1.42578
			c-1.66699-0.93066-3.06738-0.37988-4.20215,1.65234l-6.82617,12.22656l-4.72656-2.63916l10.28809-18.42529L330.87012,46.44336z"/>
		<path fill="#F1F1F2" d="M339.23633,68.98242c-0.53223,0.74512-0.76465,1.48633-0.69727,2.2251
			c0.06641,0.73926,0.47266,1.37402,1.21777,1.90576c0.68164,0.48633,1.3457,0.70361,1.99316,0.65186
			c0.64648-0.05176,1.21387-0.41797,1.7002-1.09961c0.39551-0.55322,0.53613-1.0874,0.42188-1.60303
			c-0.11426-0.51514-0.32422-1.00977-0.62793-1.48389l-2.29883-3.32812c-0.90918-1.2915-1.39551-2.5459-1.45801-3.76367
			s0.33887-2.43262,1.20508-3.646c0.50195-0.70215,1.09277-1.28369,1.77539-1.74463
			c0.68262-0.46045,1.44629-0.74268,2.29199-0.84619c0.84473-0.10352,1.76465-0.00879,2.76074,0.28418
			c0.99512,0.29346,2.05664,0.8418,3.18555,1.64746c2,1.42773,3.17578,2.91016,3.52539,4.44482
			c0.35059,1.53516-0.0293,3.07959-1.13867,4.6333l-0.50098,0.70215l-3.95898-2.82617c0.63867-0.89355,0.96191-1.65088,0.9707-2.271
			s-0.34863-1.18848-1.07227-1.70508c-0.55371-0.39502-1.14746-0.58594-1.78223-0.57422
			c-0.63574,0.0127-1.17383,0.32764-1.61426,0.94434c-0.30469,0.42627-0.44531,0.90381-0.42188,1.43457
			c0.02344,0.53027,0.32324,1.17822,0.90137,1.94434l2.01172,2.78564c1.04883,1.45557,1.59082,2.7666,1.62695,3.93213
			c0.03516,1.16602-0.41113,2.39844-1.33789,3.69629c-0.65332,0.91553-1.37891,1.59424-2.17676,2.03662
			s-1.63867,0.68555-2.52148,0.72998s-1.78125-0.11523-2.69434-0.47803c-0.91406-0.36328-1.83887-0.87891-2.77539-1.54736
			c-1.23438-0.88135-2.17773-1.73145-2.83008-2.55029s-1.05078-1.6333-1.19531-2.44385
			c-0.14453-0.80957-0.07324-1.61865,0.21387-2.42578s0.72656-1.62598,1.31934-2.45557l0.43262-0.60693l3.95898,2.82617
			L339.23633,68.98242z"/>
		<path fill="#F1F1F2" d="M363.58691,68.78027l-8.49023,12.59131l0.05762,0.0542l12.19727-9.09082l4.27832,4.03906
			l-8.26172,12.80713l0.05664,0.05371l12.1416-9.14453l3.76465,3.55469l-17.79688,12.2207l-4.47754-4.22803l8.26172-12.80713
			l-0.05664-0.05371l-12.19824,9.09082L348.5,83.55908l11.15137-18.49512L363.58691,68.78027z"/>
		<path fill="#F1F1F2" d="M374.49707,98.70801c-0.48926,0.39355-0.93457,0.81006-1.33496,1.25049
			c-0.40137,0.43994-0.71484,0.88525-0.93945,1.33545c-0.22559,0.44971-0.33887,0.89307-0.33887,1.33008
			c-0.00098,0.43652,0.1543,0.84912,0.46582,1.23633c0.57422,0.7124,1.24707,1.02734,2.01855,0.94336
			c0.77051-0.08398,1.72559-0.48291,2.86328-1.19727l3.0498,3.78906c-1.98047,1.45996-3.84766,2.12305-5.59961,1.98926
			c-1.75195-0.1333-3.43945-1.2085-5.06348-3.2251c-1.22949-1.52783-1.93359-2.9248-2.11328-4.18994
			c-0.17969-1.26562-0.0166-2.43799,0.49121-3.51807c0.50684-1.07959,1.24414-2.0835,2.20898-3.01123
			c0.96484-0.92822,1.9668-1.81006,3.00586-2.64648c1.10059-0.88525,2.2207-1.66113,3.3623-2.32861
			c1.1416-0.66699,2.29395-1.09131,3.45703-1.27246c1.16406-0.18115,2.32422-0.03223,3.48145,0.44629
			s2.30957,1.43018,3.45703,2.85645c0.98438,1.22217,1.59277,2.38525,1.82715,3.48926c0.2334,1.104,0.16895,2.17139-0.19238,3.20166
			c-0.36328,1.02979-0.99316,2.04053-1.89062,3.03174c-0.89746,0.99072-1.97754,1.99512-3.24023,3.01123l-0.94727,0.7627
			l-6.71484-8.3418L374.49707,98.70801z M383.35156,98.479c0.42871-0.4458,0.75098-0.88135,0.96387-1.3042
			c0.21289-0.42334,0.29492-0.84229,0.24707-1.25684c-0.04883-0.41406-0.24414-0.83545-0.58887-1.26318
			c-0.34375-0.42773-0.72363-0.70117-1.13867-0.8208c-0.41504-0.11865-0.8457-0.13281-1.29297-0.04199
			c-0.44727,0.09131-0.89258,0.25732-1.33691,0.49707c-0.44434,0.24023-0.86035,0.5166-1.24707,0.82812l-0.6416,0.51611
			l3.46777,4.30859C382.39941,99.41309,382.92188,98.92578,383.35156,98.479z"/>
		<path fill="#F1F1F2" d="M396.58301,106.64111l-2.35547,1.55859l0.04297,0.06543c1.15332-0.10498,2.20312,0.00049,3.14844,0.31592
			s1.72754,0.94141,2.34863,1.87939c0.08594,0.13086,0.1709,0.27051,0.25391,0.41992
			c0.08203,0.14893,0.15625,0.2959,0.22168,0.44141l-4.31836,2.85645c-0.1377-0.25439-0.27637-0.49951-0.41602-0.73584
			c-0.14062-0.23584-0.29102-0.47461-0.44922-0.71436c-0.25977-0.39258-0.57422-0.74854-0.94238-1.06934
			c-0.36914-0.32031-0.78711-0.56104-1.25391-0.72266c-0.46777-0.16113-0.96777-0.20605-1.50098-0.13574
			c-0.53418,0.0708-1.09473,0.30078-1.68359,0.69043l-10.56641,6.99023l-2.9873-4.51465l17.60059-11.64307L396.58301,106.64111z"/>
	</g>
</g>
<g class="substep">
	<path fill="#3298CB" d="M441.91992,146.29004c5.64941,18.75,8.68945,38.63037,8.68945,59.19971
		c0,113.31055-92.17969,205.49023-205.49023,205.49023v-60c80.2207,0,145.49023-65.25977,145.49023-145.49023
		c0-14.56934-2.14941-28.63965-6.16016-41.91943L441.91992,146.29004z"/>
	<g>
		<path fill="#F1F1F2" d="M259.44238,362.34131c1.43262-0.11523,2.6582,0.03125,3.67383,0.43359
			c1.0166,0.40625,1.85547,0.97461,2.51758,1.70898s1.16309,1.5918,1.50391,2.57422
			c0.34082,0.98438,0.55273,1.99609,0.63672,3.03906c0.11426,1.43359-0.00098,2.70117-0.3457,3.80469
			s-0.875,2.02539-1.58984,2.76367c-0.71484,0.74023-1.60547,1.32227-2.67383,1.74805
			c-1.06738,0.42578-2.26562,0.69336-3.5957,0.79883l-3.01074,0.24023l0.89062,11.14453l-5.63086,0.44922l-2.22949-27.91797
			L259.44238,362.34131z M258.73047,375.10889c1.12012-0.08984,1.99902-0.50195,2.63574-1.23438s0.89844-1.81641,0.7832-3.25
			c-0.1123-1.4082-0.49707-2.45117-1.15527-3.13477c-0.6582-0.68164-1.69043-0.9668-3.09766-0.85352l-2.34668,0.1875
			l0.67773,8.48438L258.73047,375.10889z"/>
		<path fill="#F1F1F2" d="M279.49414,379.62256c0.13086,0.61328,0.30176,1.19922,0.51367,1.75586s0.46777,1.03711,0.76855,1.43945
			c0.2998,0.4043,0.64453,0.70508,1.03418,0.90234c0.38867,0.19922,0.82715,0.24609,1.31348,0.14258
			c0.89453-0.19141,1.47852-0.64844,1.75195-1.375s0.34766-1.75977,0.22363-3.0957l4.75781-1.01172
			c0.40918,2.42578,0.1582,4.39062-0.75098,5.89453c-0.91016,1.50391-2.63086,2.52344-5.16309,3.0625
			c-1.91797,0.4082-3.48242,0.40625-4.69238-0.00391c-1.21094-0.41016-2.18359-1.08594-2.91797-2.02539
			c-0.73535-0.93945-1.29883-2.05078-1.69141-3.33008s-0.72754-2.57227-1.00488-3.87695
			c-0.29395-1.38086-0.48145-2.73047-0.56152-4.05078s0.06152-2.53906,0.42383-3.66016
			c0.36328-1.11914,1.01953-2.08789,1.96875-2.9043s2.31836-1.41602,4.10938-1.79688
			c1.53418-0.32617,2.84668-0.3457,3.93848-0.05664c1.08984,0.28906,2.01367,0.82812,2.76953,1.61719
			c0.75586,0.78711,1.37402,1.80664,1.85352,3.05469s0.8877,2.66406,1.22559,4.25l0.25293,1.18945l-10.47363,2.22852
			L279.49414,379.62256z M283.28516,371.6167c-0.20508-0.58398-0.44824-1.06836-0.72949-1.44922
			c-0.28223-0.38086-0.61816-0.64258-1.00977-0.78711c-0.3916-0.14258-0.85645-0.1582-1.39355-0.04492
			c-0.53711,0.11523-0.95215,0.33008-1.24609,0.64648c-0.29297,0.31641-0.5,0.69531-0.62012,1.13477
			c-0.12109,0.44141-0.17383,0.91211-0.16016,1.41797s0.07324,1,0.17676,1.48633l0.1709,0.80469l5.41016-1.15039
			C283.68945,372.88818,283.48926,372.20264,283.28516,371.6167z"/>
		<path fill="#F1F1F2" d="M301.28418,373.85303c0.20801,0.5918,0.45312,1.15039,0.73438,1.67578s0.59668,0.96875,0.94629,1.33008
			c0.34863,0.36328,0.72949,0.61719,1.1416,0.76367c0.41113,0.14648,0.85156,0.13672,1.32031-0.02734
			c0.86328-0.30469,1.38477-0.83398,1.5625-1.58984c0.17773-0.75391,0.11914-1.78711-0.1748-3.09766l4.58887-1.61328
			c0.71582,2.35352,0.71973,4.33398,0.00977,5.94141c-0.70996,1.60938-2.28613,2.8418-4.72852,3.69922
			c-1.84961,0.65039-3.40137,0.84961-4.6543,0.59766s-2.30371-0.79688-3.15332-1.63477
			c-0.84863-0.83789-1.5498-1.86719-2.10352-3.08594c-0.55273-1.21875-1.05078-2.45898-1.49316-3.7168
			c-0.46875-1.33203-0.82715-2.64648-1.0752-3.94531c-0.24902-1.29883-0.26465-2.52734-0.04785-3.68359
			c0.2168-1.1582,0.74316-2.20117,1.58008-3.13477c0.83594-0.92969,2.11816-1.69922,3.84473-2.30664
			c1.48047-0.52148,2.78027-0.70703,3.89844-0.56055c1.11914,0.14648,2.10449,0.56445,2.95508,1.24805
			c0.84961,0.68555,1.59277,1.61719,2.22852,2.79297s1.22266,2.5293,1.75977,4.05859l0.40332,1.14648l-10.10254,3.55273
			L301.28418,373.85303z M304.01855,365.4292c-0.27734-0.55273-0.58105-1.00195-0.90918-1.34375s-0.69531-0.55859-1.10156-0.65234
			c-0.40723-0.0918-0.86914-0.04688-1.3877,0.13477c-0.51758,0.18164-0.90234,0.44922-1.15332,0.80078
			c-0.25,0.35156-0.40723,0.75195-0.46973,1.20508c-0.06348,0.45117-0.05566,0.92773,0.02344,1.42578
			c0.07812,0.5,0.2002,0.98242,0.36426,1.45117l0.27344,0.77734l5.21777-1.83398
			C304.58203,366.63818,304.29688,365.98193,304.01855,365.4292z"/>
		<path fill="#F1F1F2" d="M316.38379,353.60107l1.22363,2.54688l0.07031-0.03516c0.05371-1.15625,0.30078-2.18164,0.74121-3.07617
			c0.44141-0.89258,1.16797-1.58398,2.18164-2.07031c0.1416-0.06836,0.29102-0.13281,0.4502-0.19531
			c0.15918-0.06055,0.31445-0.11523,0.46777-0.16016l2.24316,4.66797c-0.27148,0.10156-0.53223,0.20508-0.78613,0.3125
			c-0.25293,0.10742-0.50977,0.22266-0.76855,0.34766c-0.42383,0.20312-0.82031,0.4668-1.1875,0.78711
			c-0.36719,0.32227-0.66309,0.70312-0.88672,1.14453c-0.22266,0.44141-0.33594,0.93164-0.33789,1.46875
			c-0.00293,0.53906,0.14844,1.125,0.4541,1.76172l5.48926,11.41797l-4.87891,2.3457l-9.14258-19.01953L316.38379,353.60107z"/>
		<path fill="#F1F1F2" d="M331.01953,336.89795l7.29395,29.42188l-3.66797,2.19727l-7.39453-29.36133L331.01953,336.89795z"/>
		<path fill="#F1F1F2" d="M350.09961,348.61279c0.39941,0.51758,0.80371,0.95703,1.21387,1.31836
			c0.40918,0.36133,0.83984,0.59961,1.29199,0.71289c0.45117,0.11523,0.93164,0.10742,1.44336-0.02344
			c0.51074-0.12891,1.05566-0.41602,1.63574-0.86328c0.68359-0.52734,1.12891-1.22461,1.33496-2.0918
			c0.20508-0.86914-0.05078-1.76953-0.76855-2.70117c-0.38281-0.49805-0.78125-0.875-1.19531-1.13477
			c-0.41406-0.25781-0.8877-0.41211-1.42188-0.46484c-0.53418-0.04883-1.14746,0.00195-1.83789,0.1543
			c-0.69141,0.15234-1.50586,0.39258-2.44238,0.7168c-1.25,0.43555-2.38965,0.73438-3.41699,0.90039
			c-1.02832,0.16406-1.99023,0.16992-2.88379,0.01758c-0.89355-0.1543-1.72168-0.49023-2.48438-1.00781
			c-0.7627-0.51953-1.49414-1.23438-2.19629-2.14648c-1.69141-2.19531-2.3418-4.30273-1.94922-6.32031
			c0.39258-2.01953,1.65625-3.85156,3.79004-5.49414c0.99414-0.76562,1.99512-1.36328,3.00098-1.79297
			c1.00684-0.42773,2.00391-0.63477,2.98926-0.61914c0.98633,0.01758,1.94141,0.27148,2.86621,0.76367
			c0.92383,0.49414,1.79297,1.26758,2.60645,2.32422l0.47949,0.62109l-4.28906,3.30469
			c-0.81348-1.05664-1.62598-1.72656-2.43848-2.00977c-0.81152-0.28125-1.65234-0.08789-2.52246,0.58203
			c-0.49707,0.38281-0.85547,0.77539-1.0752,1.17578s-0.33594,0.79492-0.34961,1.18359
			c-0.01367,0.39062,0.06348,0.76953,0.23047,1.13477c0.16602,0.36719,0.37793,0.7168,0.63281,1.04883
			c0.52637,0.68359,1.11426,1.14648,1.76367,1.38867s1.60156,0.19531,2.8584-0.14648l4.59766-1.16602
			c1.13672-0.28125,2.12988-0.42578,2.97949-0.4375s1.61523,0.09375,2.29492,0.3125
			c0.68066,0.21875,1.29785,0.55859,1.85352,1.02344c0.55469,0.46289,1.0957,1.03711,1.62207,1.7207
			c1.80371,2.33984,2.4375,4.56641,1.90234,6.67969c-0.53516,2.11133-2.01465,4.10156-4.43848,5.96875
			c-2.52734,1.94727-4.75781,2.78906-6.69141,2.5293c-1.93262-0.25977-3.68945-1.41602-5.26953-3.4668l-0.69434-0.90039
			l4.47461-3.44727L350.09961,348.61279z"/>
		<path fill="#F1F1F2" d="M368.91797,332.3999c0.44629,0.44141,0.91016,0.83594,1.39258,1.18555
			c0.48242,0.34766,0.95996,0.60938,1.43262,0.7832s0.92578,0.23438,1.35938,0.1875c0.43457-0.04883,0.82617-0.25,1.17578-0.60352
			c0.64453-0.65039,0.88086-1.35352,0.71094-2.11133c-0.16992-0.75586-0.67383-1.66016-1.51172-2.71094l3.42188-3.45508
			c1.67383,1.80273,2.54297,3.58398,2.60645,5.33984c0.06445,1.75586-0.81348,3.55273-2.63477,5.39258
			c-1.37988,1.39453-2.68945,2.25195-3.92578,2.57227c-1.2373,0.32031-2.4209,0.29102-3.55078-0.09375
			c-1.12988-0.38086-2.20996-1-3.24121-1.85547c-1.03027-0.85352-2.01953-1.75-2.9668-2.68945
			c-1.00391-0.99219-1.90137-2.01953-2.69238-3.07812c-0.79102-1.06055-1.34277-2.1582-1.65332-3.29297
			s-0.29297-2.30469,0.05176-3.50977c0.3457-1.20312,1.16211-2.45508,2.4502-3.75586
			c1.10352-1.11523,2.19043-1.85156,3.26172-2.20703c1.07031-0.35742,2.1377-0.41406,3.20215-0.16992
			c1.06445,0.24609,2.13965,0.75781,3.22559,1.53711c1.08594,0.78125,2.2041,1.74219,3.35645,2.88281l0.86426,0.85547
			l-7.53418,7.60938L368.91797,332.3999z M367.69531,323.62646c-0.49219-0.37695-0.96094-0.64648-1.40527-0.81055
			s-0.87012-0.19922-1.27637-0.10547c-0.40625,0.0957-0.80273,0.33789-1.18945,0.72852
			c-0.38574,0.38867-0.61523,0.79688-0.68652,1.22266c-0.07227,0.42578-0.03809,0.85547,0.10352,1.28906
			c0.14062,0.43555,0.35547,0.85938,0.64453,1.27344c0.28809,0.41406,0.60938,0.79688,0.96191,1.14648l0.58594,0.57812
			l3.89062-3.92969C368.73047,324.46826,368.18652,324.00342,367.69531,323.62646z"/>
		<path fill="#F1F1F2" d="M368.42871,303.11475l21.7002,17.70508l-3.42188,4.19531l-21.7002-17.70508L368.42871,303.11475z"/>
		<path fill="#F1F1F2" d="M379.16113,306.64404l-3.01953-2.11523l1.5752-2.25l-1.95996-1.37305
			c-0.77051-0.53906-1.34863-1.10352-1.73438-1.69336c-0.38574-0.58789-0.60059-1.19336-0.64355-1.81641
			c-0.04395-0.62109,0.06738-1.26953,0.33301-1.94531s0.64648-1.36719,1.1416-2.07422
			c0.55469-0.79102,1.1416-1.5625,1.76172-2.30859l3.14844,2.20508c-0.09668,0.0918-0.21289,0.23438-0.34766,0.42773
			l-0.29199,0.41602c-0.43555,0.62305-0.63574,1.13672-0.60156,1.54297c0.03418,0.4082,0.29785,0.7832,0.79004,1.12891
			l1.50977,1.05664l1.80078-2.57031l3.01953,2.11523l-1.7998,2.57031l14.26367,9.99219l-3.10547,4.43359l-14.26465-9.99219
			L379.16113,306.64404z"/>
		<path fill="#F1F1F2" d="M400.59668,288.51318l-5.49219,9.60156l-4.01758-2.29883l5.49219-9.60156L400.59668,288.51318z"/>
		<path fill="#F1F1F2" d="M398.3584,279.56982c-1.13086-0.48047-1.99902-1.0625-2.60352-1.74609s-1.01074-1.43164-1.21875-2.24414
			c-0.20801-0.81445-0.2373-1.67969-0.08887-2.5957c0.14844-0.91797,0.42188-1.8457,0.82129-2.78516
			c0.63477-1.49023,1.29102-2.63281,1.96875-3.42383s1.38965-1.32812,2.13379-1.60742
			c0.74414-0.28125,1.52148-0.35547,2.33203-0.22266c0.81152,0.13086,1.64941,0.38086,2.51562,0.75l10.21484,4.3457
			c0.91504,0.38867,1.6416,0.64844,2.18359,0.7793c0.54102,0.13086,1.15137,0.19922,1.83105,0.20508l-2.02734,4.76367
			c-0.38379,0.03516-0.76855,0.02148-1.15332-0.04297s-0.76074-0.13281-1.12891-0.20312l-0.03027,0.07227
			c0.76465,1.00781,1.13672,1.95312,1.11523,2.83984c-0.02246,0.88477-0.28906,1.92969-0.80078,3.13281
			c-0.36816,0.86719-0.83105,1.53711-1.3877,2.00977c-0.55664,0.47461-1.17676,0.7793-1.85938,0.91406
			c-0.68262,0.13672-1.3916,0.14844-2.125,0.03516s-1.4248-0.30859-2.07422-0.58398
			c-0.91406-0.39062-1.66113-0.82031-2.24121-1.29492s-1.02051-1.00977-1.32031-1.60742
			c-0.30078-0.5957-0.47656-1.26758-0.52832-2.01367s-0.01367-1.60547,0.11426-2.57422l0.43945-3.13672
			c0.125-0.82812,0.08105-1.45703-0.13379-1.89062c-0.21387-0.43164-0.64551-0.78516-1.29492-1.0625
			c-0.74609-0.31641-1.4043-0.39062-1.97363-0.2207s-1.0332,0.67578-1.3916,1.51758
			c-0.32812,0.76953-0.34473,1.44531-0.05176,2.02344c0.29395,0.58008,0.8252,1.0332,1.5957,1.36133l0.54102,0.23047
			l-1.9043,4.47656L398.3584,279.56982z M406.62207,273.62256c-0.00684,0.45312-0.04199,0.84961-0.10254,1.19336
			c-0.21387,1.10156-0.15918,1.97852,0.16113,2.625c0.32129,0.64844,0.91504,1.1582,1.78125,1.52539
			c0.74609,0.31836,1.44531,0.44531,2.09766,0.38086c0.65234-0.0625,1.12109-0.43164,1.4082-1.10547
			c0.14258-0.33594,0.2373-0.70898,0.28223-1.11523c0.0459-0.4082,0.01172-0.8125-0.10059-1.2168
			c-0.1123-0.40234-0.32031-0.78125-0.62402-1.13867c-0.30273-0.35547-0.71875-0.64648-1.24805-0.87109l-3.82617-1.62891
			C406.57227,272.72217,406.62891,273.17139,406.62207,273.62256z"/>
		<path fill="#F1F1F2" d="M416.33984,257.38916c0.88184,0.24805,1.6582,0.21582,2.33008-0.09863
			c0.67285-0.31348,1.13184-0.91016,1.37988-1.79297c0.22656-0.80469,0.20508-1.50391-0.06348-2.0957
			c-0.26758-0.58984-0.80469-1-1.61035-1.22656c-0.6543-0.18359-1.20508-0.13477-1.65137,0.14746
			c-0.44531,0.28223-0.83984,0.64746-1.18262,1.09375l-2.35156,3.29102c-0.90625,1.29395-1.92188,2.17676-3.0459,2.64746
			c-1.12402,0.47266-2.4043,0.50586-3.83887,0.10352c-0.83105-0.23438-1.57812-0.59277-2.24316-1.0791
			c-0.66504-0.48535-1.18945-1.1084-1.57324-1.86816s-0.60742-1.6582-0.66895-2.69336
			c-0.06152-1.03711,0.09473-2.2207,0.46973-3.55664c0.66504-2.36523,1.66016-3.97363,2.98535-4.82422
			c1.32617-0.84961,2.90723-1.01562,4.74512-0.5l0.83008,0.23438l-1.31543,4.68164
			c-1.05762-0.29688-1.87988-0.34375-2.46582-0.14258c-0.58691,0.20215-1,0.73145-1.24023,1.58691
			c-0.18457,0.65527-0.16211,1.27832,0.06445,1.87207s0.70508,0.99316,1.43555,1.19824
			c0.50391,0.1416,1.00098,0.1123,1.49219-0.08984s0.99902-0.7041,1.52344-1.50684l1.93848-2.83789
			c1.01367-1.48047,2.06348-2.43555,3.14746-2.86328c1.08496-0.42871,2.39551-0.42773,3.93066,0.00391
			c1.08301,0.30469,1.96777,0.75781,2.6543,1.35742c0.68652,0.60156,1.2002,1.30957,1.54199,2.125
			c0.34082,0.81543,0.49609,1.71484,0.46387,2.69727c-0.03125,0.98242-0.20312,2.02734-0.51465,3.13477
			c-0.41016,1.46094-0.89062,2.63672-1.43945,3.52734c-0.54883,0.89258-1.18066,1.54297-1.89355,1.95312
			c-0.71289,0.41211-1.49805,0.61914-2.35449,0.62109c-0.85645,0.00391-1.77637-0.13086-2.75781-0.4082l-0.71777-0.20117
			l1.31641-4.68164L416.33984,257.38916z"/>
		<path fill="#F1F1F2" d="M421.29492,236.14502c0.90527,0.1377,1.67188,0.01074,2.2998-0.38379
			c0.62891-0.39258,1.01172-1.04199,1.15039-1.94727c0.12598-0.82715,0.01953-1.51758-0.31934-2.07227
			c-0.33887-0.55371-0.92188-0.89453-1.74902-1.02051c-0.67188-0.10254-1.21191,0.01367-1.62012,0.34863
			c-0.4082,0.33398-0.75488,0.74414-1.04102,1.22949l-1.93066,3.55469c-0.74121,1.39551-1.64062,2.39551-2.69922,3.00098
			c-1.05762,0.60645-2.32324,0.79688-3.79688,0.57227c-0.85254-0.13086-1.63867-0.39453-2.3584-0.7959
			c-0.71875-0.40039-1.31543-0.9541-1.79004-1.66113c-0.47363-0.70703-0.80566-1.57129-0.99414-2.5918
			c-0.1875-1.02148-0.17773-2.21582,0.03125-3.58594c0.37012-2.42969,1.16113-4.14844,2.37207-5.1543
			c1.21191-1.00586,2.76074-1.36523,4.64844-1.07715l0.85254,0.12988l-0.73242,4.80859
			c-1.08594-0.16602-1.90723-0.1123-2.46484,0.16016c-0.55762,0.27148-0.90332,0.84766-1.03711,1.72656
			c-0.10254,0.67188-0.00391,1.28906,0.29395,1.84961c0.29785,0.56152,0.82129,0.89941,1.57129,1.01367
			c0.51758,0.07812,1.00684-0.01172,1.46973-0.27148s0.90527-0.82129,1.32812-1.68359l1.57617-3.05273
			c0.8252-1.59375,1.74902-2.66992,2.77344-3.22754s2.3252-0.7168,3.90137-0.47656c1.11133,0.16895,2.04492,0.50977,2.7998,1.02246
			c0.75586,0.51172,1.35254,1.15137,1.79102,1.91895c0.43848,0.76855,0.70215,1.6416,0.79102,2.62012
			c0.08887,0.97949,0.04688,2.03711-0.12695,3.1748c-0.22852,1.49902-0.56055,2.72559-0.99707,3.67676
			c-0.43555,0.95312-0.98242,1.67578-1.63965,2.1709s-1.41113,0.7959-2.26074,0.90527
			c-0.84961,0.1084-1.7793,0.08594-2.78711-0.06836l-0.73633-0.11133l0.73242-4.80859L421.29492,236.14502z"/>
		<path fill="#F1F1F2" d="M421.78711,213.8335c0.62695,0.01953,1.23633-0.00781,1.82715-0.08203
			c0.59082-0.07227,1.11914-0.20703,1.58203-0.40234c0.46387-0.19434,0.83887-0.45703,1.12305-0.78906
			c0.28516-0.33105,0.43555-0.74512,0.4502-1.24219c0.02832-0.91406-0.27734-1.59082-0.91797-2.0293
			c-0.64062-0.4375-1.625-0.75684-2.95312-0.95508l0.14941-4.86133c2.4541,0.18066,4.30371,0.89258,5.54688,2.13281
			c1.24316,1.24219,1.8252,3.15723,1.74512,5.74414c-0.06055,1.96094-0.43457,3.48047-1.12109,4.55762
			c-0.6875,1.07715-1.57422,1.86133-2.66309,2.35059c-1.08691,0.49023-2.2998,0.77344-3.63672,0.84961
			c-1.33594,0.07617-2.6709,0.09375-4.00391,0.05273c-1.41211-0.04297-2.76758-0.18359-4.06836-0.41992
			s-2.45215-0.66406-3.45312-1.2832s-1.78516-1.4873-2.35352-2.60352c-0.56641-1.11719-0.82227-2.58984-0.76562-4.41992
			c0.04785-1.56738,0.34277-2.84668,0.88379-3.83789c0.54004-0.99023,1.28418-1.75879,2.22949-2.30469
			c0.94531-0.54688,2.08203-0.9043,3.40723-1.07227c1.32715-0.16797,2.80078-0.22852,4.4209-0.17773l1.21484,0.03711
			l-0.33008,10.70312L421.78711,213.8335z M414.91504,208.24463c-0.61621,0.05957-1.14355,0.18066-1.58105,0.36328
			s-0.77246,0.44727-1.00586,0.79395c-0.23242,0.3457-0.35742,0.79297-0.375,1.3418
			c-0.0166,0.54883,0.09375,1.00391,0.33105,1.36328c0.23828,0.36133,0.55566,0.65234,0.9541,0.87402
			c0.39941,0.22168,0.8457,0.38574,1.33887,0.49219c0.49414,0.10742,0.98926,0.16797,1.48535,0.18359l0.82324,0.02539
			l0.1709-5.52832C416.24609,208.15576,415.53223,208.18506,414.91504,208.24463z"/>
		<path fill="#F1F1F2" d="M423.24707,191.87061c0.91211-0.08691,1.62402-0.39746,2.1377-0.93311
			c0.51367-0.53467,0.72656-1.25781,0.63965-2.16895c-0.0791-0.83301-0.35059-1.47705-0.81445-1.93213
			c-0.46387-0.4541-1.1123-0.64209-1.94531-0.5625c-0.67676,0.06445-1.17285,0.30859-1.48633,0.73291
			c-0.31445,0.42383-0.55078,0.90625-0.70898,1.44678l-1.00488,3.91797c-0.37891,1.53369-1.00781,2.72314-1.88574,3.56885
			c-0.87793,0.84619-2.05957,1.33936-3.54297,1.48096c-0.85938,0.08203-1.68652,0.01709-2.48145-0.19629
			c-0.79492-0.21289-1.50879-0.60449-2.1416-1.1748c-0.63184-0.57031-1.16406-1.32715-1.5957-2.271s-0.71387-2.10498-0.8457-3.48535
			c-0.2334-2.44629,0.11523-4.30566,1.04395-5.57666c0.92969-1.271,2.34473-1.99707,4.24414-2.17822l0.85938-0.08203l0.46289,4.8418
			c-1.09375,0.10449-1.87695,0.35645-2.35156,0.75635c-0.47363,0.3999-0.66895,1.04297-0.58398,1.92725
			c0.06445,0.67725,0.31055,1.25098,0.73535,1.72266c0.42676,0.47168,1.0166,0.67139,1.77148,0.59961
			c0.52148-0.0498,0.97461-0.25684,1.35938-0.62256c0.38574-0.36523,0.67773-1.0166,0.87695-1.95557l0.78418-3.34521
			c0.41113-1.74658,1.04492-3.01562,1.90137-3.80664c0.85742-0.79102,2.08008-1.2627,3.66797-1.41406
			c1.11914-0.10693,2.10742-0.00439,2.96484,0.30762c0.85742,0.3125,1.5918,0.7876,2.20508,1.4248
			c0.6123,0.6377,1.08105,1.42041,1.40625,2.34814c0.3252,0.92822,0.54199,1.96436,0.65137,3.10986
			c0.14453,1.50977,0.12109,2.77979-0.06934,3.80908c-0.19043,1.02979-0.54492,1.86426-1.06152,2.50488
			c-0.5166,0.64014-1.17383,1.1167-1.97168,1.42969c-0.79785,0.3125-1.7041,0.51709-2.71875,0.61426l-0.74219,0.0708
			l-0.46289-4.8418L423.24707,191.87061z"/>
		<path fill="#F1F1F2" d="M420.21875,170.32861c0.89453-0.19727,1.56348-0.59229,2.00781-1.18604
			c0.44531-0.59375,0.56836-1.33691,0.37109-2.23096c-0.17969-0.81689-0.52832-1.42334-1.04395-1.81836
			c-0.51465-0.39453-1.18164-0.50244-1.99902-0.32178c-0.66406,0.14648-1.12598,0.44922-1.38672,0.90869
			c-0.25977,0.45898-0.43555,0.96631-0.52734,1.52197l-0.52051,4.01172c-0.18945,1.56787-0.66797,2.8252-1.43652,3.77148
			c-0.76855,0.94678-1.88086,1.58008-3.33594,1.90137c-0.84277,0.18604-1.67188,0.22217-2.4873,0.10693
			c-0.81543-0.11426-1.57129-0.41602-2.26855-0.90479c-0.69629-0.48926-1.31738-1.17578-1.86035-2.06006
			s-0.96484-2.00244-1.26367-3.35645c-0.5293-2.3999-0.41016-4.2876,0.35742-5.66211s2.08398-2.26758,3.94727-2.6792
			l0.84277-0.18604l1.04883,4.74951c-1.07324,0.23682-1.82031,0.58252-2.24219,1.03711s-0.53613,1.1167-0.34473,1.98438
			c0.14648,0.66406,0.45996,1.2041,0.93945,1.62012c0.48047,0.41602,1.09082,0.54248,1.83105,0.37939
			c0.51172-0.11328,0.93652-0.37354,1.27344-0.7832c0.33887-0.40918,0.5498-1.0918,0.63281-2.04785l0.37109-3.41602
			c0.19531-1.78369,0.66992-3.12061,1.42383-4.00977c0.75488-0.88965,1.91113-1.50635,3.46875-1.8501
			c1.09766-0.24268,2.09082-0.26074,2.98047-0.05566c0.88867,0.20557,1.67578,0.58789,2.36133,1.146
			c0.68555,0.55859,1.24609,1.27832,1.68164,2.15918c0.43555,0.88184,0.77734,1.88428,1.02539,3.00732
			c0.32715,1.48145,0.45801,2.74463,0.39453,3.78955s-0.31348,1.9165-0.74805,2.61523s-1.0293,1.25146-1.7832,1.65918
			c-0.75391,0.40723-1.62793,0.7207-2.62402,0.94043l-0.72754,0.16064l-1.04883-4.74951L420.21875,170.32861z"/>
	</g>
</g>
<g class="substep">
	<path fill="#CC2029" d="M100.88965,222.81006l42.89014,0.75l-35.68018-17.43945l-1.32031-0.63086l-7.10449-3.46973
		l-27.24805-13.33984l-32.7832,14.66016l-3.43213,1.53027l-1.39062,0.61914L0,221.06006l40.5,0.7002
		c8.32031,105.72949,97.09961,189.21973,205.09961,189.21973v-60C170.59961,350.97998,109.46973,294.8999,100.88965,222.81006z"/>
	<g>
		<path fill="#F1F1F2" d="M108.97559,284.09326c1.15234,2.05078,1.5293,3.9375,1.13184,5.66211
			c-0.39746,1.72266-1.65625,3.17773-3.77734,4.36914c-1.6416,0.92188-3.16699,1.3418-4.5752,1.26367
			c-1.40918-0.07812-2.65234-0.73047-3.72949-1.95508l-0.06836,0.03906c0.50879,1.33398,0.61523,2.45703,0.32031,3.37305
			c-0.2959,0.91602-1.08984,1.82617-2.38086,2.73242c-0.43066,0.30078-0.90723,0.61328-1.43066,0.9375
			c-0.52344,0.32227-1.1084,0.68164-1.75684,1.07617c-1.27441,0.77539-2.22754,1.40039-2.86035,1.875
			c-0.60742,0.52148-0.90918,1.08008-0.90332,1.67773l-0.20508,0.11523l-2.99512-5.33594
			c0.2002-0.44336,0.50488-0.82422,0.91113-1.14062c0.40625-0.31836,0.8418-0.625,1.30762-0.91602l4.60938-2.76758
			c0.93164-0.58203,1.5498-1.24414,1.85449-1.98438c0.30371-0.74023,0.16797-1.625-0.4082-2.65039l-1.47852-2.63281
			l-10.3291,5.79883l-2.76562-4.92578l24.42188-13.71094L108.97559,284.09326z M97.11328,287.9624
			c0.66602,1.18555,1.45703,1.94141,2.37402,2.26562s2.03711,0.11719,3.35938-0.625c2.25781-1.26758,2.74609-3.04297,1.4668-5.32227
			l-1.30566-2.32617l-7.04688,3.95508L97.11328,287.9624z"/>
		<path fill="#F1F1F2" d="M102.80859,311.11865c-0.49902,0.38086-0.95508,0.78516-1.36719,1.21484
			c-0.41309,0.42969-0.73828,0.86523-0.97461,1.31055c-0.2373,0.44336-0.3623,0.88281-0.37402,1.32031
			c-0.0127,0.43555,0.13184,0.85156,0.43359,1.24805c0.55469,0.72656,1.21875,1.06055,1.99219,0.99609
			s1.73828-0.4375,2.89453-1.12109l2.94824,3.86914c-2.01855,1.40625-3.90234,2.01953-5.65039,1.83984
			s-3.40723-1.29883-4.97656-3.35742c-1.18848-1.56055-1.85547-2.97461-2.00195-4.24414s0.04883-2.4375,0.58496-3.50391
			c0.53516-1.06641,1.29785-2.05078,2.28711-2.95312c0.98926-0.90039,2.01465-1.75586,3.0752-2.56445
			c1.12305-0.85742,2.26367-1.60352,3.42285-2.24023c1.1582-0.63672,2.32227-1.0293,3.48926-1.17969
			c1.16797-0.15039,2.32324,0.0293,3.46777,0.53711c1.14453,0.50977,2.27148,1.49219,3.38086,2.94727
			c0.95117,1.24805,1.5293,2.42773,1.73438,3.53711c0.2041,1.10938,0.11133,2.17383-0.27734,3.19531
			c-0.38965,1.01953-1.04688,2.01367-1.96973,2.98047c-0.92383,0.9668-2.03027,1.94141-3.31934,2.92383l-0.9668,0.73828
			l-6.49121-8.51758L102.80859,311.11865z M111.66602,311.12451c0.44043-0.43555,0.77344-0.86133,0.99805-1.2793
			s0.31738-0.83398,0.28027-1.25c-0.03711-0.41406-0.22168-0.8418-0.55469-1.27734c-0.33301-0.4375-0.70605-0.7207-1.11719-0.85156
			c-0.41211-0.12891-0.8418-0.1543-1.29102-0.07617c-0.44922,0.08008-0.89941,0.23438-1.34961,0.46289
			c-0.45117,0.22852-0.87402,0.49219-1.26855,0.79297l-0.65527,0.5l3.35254,4.39844
			C110.68945,312.03271,111.22461,311.56006,111.66602,311.12451z"/>
		<path fill="#F1F1F2" d="M134.08691,326.79248l-18.78027,10.98633l-4.3916-4.48438l11.25879-18.66211l3.95312,4.03516
			l-8.6748,12.72461l0.05566,0.05664l12.79102-8.52148L134.08691,326.79248z"/>
		<path fill="#F1F1F2" d="M141.44629,332.92139l-13.63379,16.10938l-4.13086-3.49805l13.63379-16.10742L141.44629,332.92139z
			 M146.10938,327.41357l-2.99023,3.5332l-4.13184-3.49805l2.99023-3.5332L146.10938,327.41357z"/>
		<path fill="#F1F1F2" d="M142.31348,350.02686c-0.35742,0.51562-0.66699,1.04102-0.92676,1.57617s-0.43457,1.05078-0.52246,1.54688
			c-0.08984,0.49609-0.07227,0.95312,0.05078,1.37109c0.12305,0.41992,0.38867,0.77148,0.79688,1.05469
			c0.75195,0.52148,1.48633,0.63281,2.20312,0.33398c0.71582-0.29883,1.51855-0.95312,2.40723-1.95898l3.99707,2.77148
			c-1.48633,1.96094-3.08887,3.125-4.80664,3.49219c-1.71973,0.36719-3.64258-0.18555-5.76953-1.66016
			c-1.6123-1.11719-2.68262-2.25781-3.21289-3.42188c-0.53125-1.16211-0.70508-2.33398-0.52441-3.51172
			c0.18066-1.17969,0.60352-2.35156,1.2666-3.51367c0.66309-1.16406,1.37402-2.29297,2.13379-3.38867
			c0.80469-1.16016,1.66016-2.22266,2.56641-3.18555s1.8916-1.69531,2.95605-2.19922
			c1.06445-0.50195,2.21875-0.6875,3.46484-0.55664c1.24512,0.13086,2.62012,0.71875,4.12402,1.76172
			c1.29004,0.89453,2.20312,1.83789,2.74023,2.83008c0.53613,0.99219,0.77637,2.0332,0.7207,3.125
			c-0.05664,1.08984-0.375,2.23828-0.95508,3.44336c-0.58008,1.20312-1.33203,2.47266-2.25586,3.80469l-0.69238,1l-8.80078-6.10156
			L142.31348,350.02686z M150.74121,347.30225c0.28516-0.55078,0.4707-1.05859,0.55566-1.52539
			c0.08398-0.4668,0.04492-0.89062-0.11816-1.27539c-0.16406-0.38281-0.47168-0.73242-0.92285-1.04492
			s-0.89258-0.4668-1.32422-0.46484c-0.43164,0.00391-0.84961,0.11133-1.25195,0.32617
			c-0.40332,0.21289-0.78418,0.49805-1.1416,0.85547c-0.3584,0.35547-0.67969,0.73828-0.96191,1.14648l-0.46973,0.67773
			l4.5459,3.15039C150.0918,348.46631,150.45508,347.85107,150.74121,347.30225z"/>
		<path fill="#F1F1F2" d="M167.28125,350.46436l-4.22949,14.58594l0.07031,0.0332l8.83105-12.38672l5.30859,2.53711
			l-3.94629,14.7207l0.07031,0.0332l8.76074-12.41992l4.67188,2.23242l-13.20312,17.07812l-5.55664-2.6543l3.94629-14.7207
			l-0.07031-0.0332l-8.83105,12.38672l-5.66309-2.70508l4.95605-21.01953L167.28125,350.46436z"/>
	</g>
</g>
</svg>
