<?xml version="1.0" encoding="utf-8"?>
<!-- Generator: Adobe Illustrator 16.0.0, SVG Export Plug-In . SVG Version: 6.00 Build 0)  -->
<!DOCTYPE svg PUBLIC "-//W3C//DTD SVG 1.1//EN" "http://www.w3.org/Graphics/SVG/1.1/DTD/svg11.dtd">
<svg version="1.1" id="Layer_1" xmlns="http://www.w3.org/2000/svg" xmlns:xlink="http://www.w3.org/1999/xlink" x="0px" y="0px"
	 width="605.33301px" height="193.33301px" viewBox="0 0 605.33301 193.33301" enable-background="new 0 0 605.33301 193.33301"
	 xml:space="preserve">
<polygon fill-rule="evenodd" clip-rule="evenodd" fill="#ED1C24" points="60.9165,59.64844 60.9165,34.14844 86.4165,34.14844 
	60.9165,8.64941 22.03857,8.64941 22.03857,45.73535 35.4165,59.64844 "/>
<polygon fill-rule="evenodd" clip-rule="evenodd" fill="#ED1C24" points="86.41602,59.64844 111.91602,59.64844 111.91602,85.14844 
	137.41504,59.64844 137.41504,20.77051 100.3291,20.77051 86.41602,34.14844 "/>
<polygon fill-rule="evenodd" clip-rule="evenodd" fill="#ED1C24" points="60.9165,85.14795 35.4165,85.14795 35.4165,59.64795 
	9.91748,85.14795 9.91748,124.02637 47.00342,124.02637 60.9165,110.64844 "/>
<polygon fill-rule="evenodd" clip-rule="evenodd" fill="#ED1C24" points="86.41602,85.14844 86.41602,110.64844 60.91602,110.64844 
	86.41602,136.14746 125.29443,136.14746 125.29443,99.06152 111.91602,85.14844 "/>
<g>
	<defs>
		<rect id="SVGID_1_" width="605.33301" height="193.33301"/>
	</defs>
	<clipPath id="SVGID_2_">
		<use xlink:href="#SVGID_1_"  overflow="visible"/>
	</clipPath>
	<path clip-path="url(#SVGID_2_)" d="M163.59521,180.59961c2.56396,0,6.02783-0.63379,6.82812-0.78711l-0.09131-1.70215
		c-0.90186,0.1377-4.37695,0.64453-6.51172,0.64453c-6.30811,0-7.46289-3.79883-7.46289-11.28223
		c0-7.62891,1.14893-11.50293,7.4248-11.50293c2.38281,0,5.68018,0.52832,6.5542,0.6748l0.12061-1.7373
		c-0.75-0.15234-3.8667-0.74512-6.86182-0.74512c-7.72217,0-9.23291,4.88086-9.23291,13.31055
		C154.3623,175.78711,155.87305,180.59961,163.59521,180.59961"/>
	<path clip-path="url(#SVGID_2_)" d="M181.97559,161.57227c-5.0542,0-7.51123,3.12988-7.51123,9.56934
		c0,6.68555,2.04639,9.42578,7.06299,9.45801c2.53223,0,6.1001-0.40137,6.94238-0.50098l-0.06006-1.47852
		c-0.87207,0.06836-4.29785,0.32227-6.65918,0.32227c-3.78711,0-5.40283-2.0752-5.40283-6.93848
		c0-0.11035,0.08984-0.2002,0.19971-0.2002h12.53613l0.06592-1.60547C189.14941,164.31641,186.86963,161.57227,181.97559,161.57227
		 M187.10449,170.33105h-10.55713c-0.10986,0-0.19971-0.08984-0.19971-0.2002c0-4.69238,1.84082-6.97363,5.62793-6.97363
		c3.73486,0,5.3291,2.08594,5.3291,6.97363C187.30469,170.24121,187.21436,170.33105,187.10449,170.33105"/>
	<path clip-path="url(#SVGID_2_)" d="M203.91211,156.46875L203.91211,156.46875c0.4541,0,0.87793,0.02051,1.27295,0.06152
		C204.79004,156.48926,204.36621,156.46875,203.91211,156.46875"/>
	<path clip-path="url(#SVGID_2_)" d="M204.24951,166.12695c0.88916,0,1.64697-0.1123,2.28418-0.33301
		C205.89648,166.01465,205.13867,166.12695,204.24951,166.12695z"/>
	<path clip-path="url(#SVGID_2_)" d="M209.51318,170.35449c0.20117,0.33105,0.36377,0.71289,0.47607,1.15332
		C209.87695,171.06738,209.71436,170.68555,209.51318,170.35449"/>
	<path clip-path="url(#SVGID_2_)" d="M207.93652,168.91992c0.46289,0.2373,0.89209,0.55273,1.24707,0.97656
		C208.82861,169.47266,208.39941,169.15723,207.93652,168.91992"/>
	<path clip-path="url(#SVGID_2_)" d="M208.15625,167.17773c-0.08008-0.02637-0.13477-0.09863-0.13916-0.18164
		c-0.00391-0.08301,0.04541-0.16016,0.12109-0.19238c2.27197-0.97559,3.28516-2.84668,3.28516-6.06836
		c0-4.23047-2.36279-6.2002-7.43604-6.2002h-9.00781v25.69043h9.56885c5.37598,0,7.77295-2.20117,7.77295-7.1377
		C212.32129,169.04004,210.09521,167.80371,208.15625,167.17773 M196.8623,156.46973c0-0.11133,0.08984-0.20117,0.2002-0.20117
		h6.84961c3.84131,0,5.55322,1.44727,5.55322,4.69238c0,3.61133-1.70605,5.36621-5.21582,5.36621h-7.18701
		c-0.11035,0-0.2002-0.08984-0.2002-0.2002V156.46973z M204.47412,178.49219h-7.41162c-0.11035,0-0.2002-0.08984-0.2002-0.2002
		v-10.06836c0-0.11035,0.08984-0.2002,0.2002-0.2002h7.18701c4.05664,0,6.11377,1.67969,6.11377,4.99219
		C210.36328,176.75195,208.49219,178.49219,204.47412,178.49219"/>
	<path clip-path="url(#SVGID_2_)" d="M204.24951,168.22363c0.97314,0,2.45215,0.06445,3.68701,0.69727
		C206.70166,168.28809,205.22266,168.22363,204.24951,168.22363z"/>
	<rect x="218.00098" y="154.53516" clip-path="url(#SVGID_2_)" width="1.88379" height="25.68945"/>
	<path clip-path="url(#SVGID_2_)" d="M223.50537,156.30566h8.07178c0.11035,0,0.2002,0.08984,0.2002,0.2002v23.71973h1.88428
		v-23.71973c0-0.11035,0.08887-0.2002,0.19971-0.2002h7.95996v-1.77051h-18.31592V156.30566z"/>
	<path clip-path="url(#SVGID_2_)" d="M298.69922,164.56738c-0.03027,0-0.06006-0.00684-0.08936-0.02051
		c-0.06787-0.0332-0.11084-0.10352-0.11084-0.17871v-2.45801h-1.84473v18.31543h1.84473v-13.76367
		c0-0.06738,0.03418-0.13086,0.09082-0.16699c0.0332-0.02246,3.26807-2.09766,6.75879-2.83887v-1.87695
		c-3.61377,0.74316-6.49854,2.9248-6.52734,2.94727C298.78516,164.55371,298.74219,164.56738,298.69922,164.56738"/>
	<path clip-path="url(#SVGID_2_)" d="M315.20898,180.63672c1.07715,0,2.97949-0.26172,3.56934-0.34668l-0.08887-1.58984
		c-0.61621,0.06445-2.41602,0.24121-3.29395,0.24121c-2.91211,0-3.15723-1.48438-3.15723-6.07715v-9.09668
		c0-0.11035,0.08984-0.2002,0.2002-0.2002h6.05176v-1.6582h-6.05176c-0.11035,0-0.2002-0.08887-0.2002-0.2002v-5.67676h-1.84473
		v5.67676c0,0.11133-0.08984,0.2002-0.2002,0.2002h-2.57031v1.6582h2.57031c0.11035,0,0.2002,0.08984,0.2002,0.2002v10.29492
		C310.39355,179.65234,311.94629,180.63672,315.20898,180.63672"/>
	<path clip-path="url(#SVGID_2_)" d="M412.3916,161.57227c-5.53906,0-7.69824,2.57812-7.69824,9.19531
		c0,7.44238,1.87109,9.83301,7.69824,9.83301c6.34473,0,7.58594-3.59082,7.58594-9.79395
		C419.97754,164.33301,417.70801,161.57227,412.3916,161.57227 M412.3916,178.97852c-5.00781,0-5.81543-2.4209-5.81543-8.21094
		c0-5.7334,1.41309-7.57422,5.81543-7.57422c4.02344,0,5.66504,2.20605,5.66504,7.61328
		C418.05664,176.45703,417.23828,178.97852,412.3916,178.97852"/>
	<path clip-path="url(#SVGID_2_)" d="M473.33594,180.63672c1.0791,0,2.98047-0.26172,3.57227-0.34668l-0.0918-1.58984
		c-0.61523,0.06445-2.41504,0.24121-3.29395,0.24121c-2.91211,0-3.15723-1.48438-3.15723-6.07715v-9.09668
		c0-0.11035,0.09082-0.2002,0.2002-0.2002h6.05176v-1.6582h-6.05176c-0.10938,0-0.2002-0.08887-0.2002-0.2002v-5.67676h-1.84473
		v5.67676c0,0.11133-0.08984,0.2002-0.2002,0.2002h-2.56934v1.6582h2.56934c0.11035,0,0.2002,0.08984,0.2002,0.2002v10.29492
		C468.52051,179.65234,470.07324,180.63672,473.33594,180.63672"/>
	<path clip-path="url(#SVGID_2_)" d="M483.81934,164.56836c-0.03027,0-0.05957-0.00781-0.08887-0.02148
		c-0.06836-0.0332-0.11133-0.10254-0.11133-0.17871v-2.45801h-1.84668v18.31543h1.84668v-13.76367
		c0-0.06738,0.03418-0.13086,0.09082-0.16699c0.0332-0.02246,3.2666-2.09863,6.75879-2.83887v-1.87695
		c-3.61719,0.74414-6.49805,2.9248-6.52734,2.94824C483.90527,164.55371,483.8623,164.56836,483.81934,164.56836"/>
	<path clip-path="url(#SVGID_2_)" d="M506.24121,161.90918l-4.88379,16.22656c-0.02441,0.08496-0.10254,0.1416-0.19043,0.1416
		h-0.96973c-0.38672,0-0.71973-0.24805-0.83008-0.61719l-4.76562-15.75098h-1.86719l5.04395,17.15625
		c0.2002,0.68359,0.83789,1.16016,1.5498,1.16016h1.1875c0.06348,0,0.12207,0.03027,0.16016,0.08008s0.0498,0.11621,0.03223,0.17578
		l-2.39648,8.16504h1.8291l7.9668-26.7373H506.24121z"/>
	<path clip-path="url(#SVGID_2_)" d="M523.31641,178.29492c-0.03027-0.07324-0.01562-0.15918,0.04004-0.2168l6.96289-7.22363
		c3.47266-3.51367,4.92285-5.53906,4.92285-8.99609c0-4.36523-2.32715-6.3125-7.54785-6.3125
		c-2.99707,0-6.11621,0.73633-6.8584,0.92285l0.18164,1.73926c0.8457-0.19141,3.92969-0.85254,6.30176-0.85254
		c4.15527,0,5.92773,1.40234,5.92773,4.69141c0,3.18359-2.1123,5.375-5.03418,8.41016l-7.61719,7.91602v1.85254h15.35938v-1.80859
		h-12.4541C523.4209,178.41699,523.34766,178.36914,523.31641,178.29492"/>
	<path clip-path="url(#SVGID_2_)" d="M557.84375,168.52246c0-10.76953-3.4668-12.97656-8.67285-12.97656
		c-4.50391,0-8.6709,1.57227-8.6709,12.97656c0,8.5791,2.52246,12.07812,8.70996,12.07812
		C555.26172,180.60059,557.84375,176.98828,557.84375,168.52246 M542.57031,168.55957c0-8.30176,1.72754-11.24316,6.60059-11.24316
		c4.90039,0,6.63867,2.93262,6.63867,11.20605c0,7.48535-1.78906,10.26855-6.59961,10.26855
		C544.36914,178.79102,542.57031,176.01855,542.57031,168.55957"/>
	<path clip-path="url(#SVGID_2_)" d="M560.94336,160.94727l0.88184,1.49023l6.41211-4.26465
		c0.03223-0.02148,0.07129-0.0332,0.10938-0.0332c0.0332,0,0.06543,0.00781,0.0957,0.02344
		c0.06445,0.03516,0.10449,0.10352,0.10449,0.17578v21.88672h1.88379v-24.30566h-1.94727L560.94336,160.94727z"/>
	<path clip-path="url(#SVGID_2_)" fill="#4D4D4F" d="M184.86621,93.92773c0,0-9.81543-1.16504-13.88037-1.16504
		c-5.74902,0-8.62402,1.89404-8.62402,5.97656c0,4.30371,2.38525,5.39746,10.51709,7.80566
		c10.09424,3.0625,13.66895,5.90527,13.66895,14.72949c0,10.5-6.72998,15.31543-16.54395,15.31543
		c-5.32715,0-14.79199-1.89746-14.79199-1.89746l0.84326-7.65625c0,0,8.90088,1.23926,13.87891,1.23926
		c5.74805,0,8.3418-1.89746,8.3418-6.78125c0-3.9375-2.03174-5.4707-9.25391-7.36523
		c-10.51514-2.84668-14.85986-6.2002-14.85986-15.24023c0-9.62793,6.37891-14.44141,16.82373-14.44141
		c5.39697,0,14.51025,1.82422,14.51025,1.82422L184.86621,93.92773z"/>
	<polygon clip-path="url(#SVGID_2_)" fill="#4D4D4F" points="200.0249,85.32275 207.87598,127.03613 209.2793,127.03613 
		217.27002,85.46777 226.59326,85.46777 234.7251,127.03613 236.05811,127.03613 243.83789,85.32275 252.46191,85.32275 
		241.80518,135.78613 228.97705,135.78613 221.89697,98.01074 214.95703,135.78613 202.12793,135.78613 191.40332,85.32275 	"/>
	<rect x="260.09619" y="85.32324" clip-path="url(#SVGID_2_)" fill="#4D4D4F" width="8.27197" height="50.46289"/>
	<polygon clip-path="url(#SVGID_2_)" fill="#4D4D4F" points="274.06836,85.32275 309.11914,85.32275 309.11914,93.56299 
		295.80127,93.56299 295.80127,135.78613 287.52734,135.78613 287.52734,93.56299 274.06836,93.56299 	"/>
	<polygon clip-path="url(#SVGID_2_)" fill="#4D4D4F" points="312.27148,85.32275 343.81738,85.32275 343.81738,94.07275 
		322.7168,126.37793 322.7168,127.5459 343.81738,127.5459 343.81738,135.78613 312.27148,135.78613 312.27148,127.03613 
		333.37207,94.80273 333.37207,93.56299 312.27148,93.56299 	"/>
	<polygon clip-path="url(#SVGID_2_)" fill="#4D4D4F" points="352.83008,85.32275 383.11328,85.32275 383.11328,93.4917 
		360.96191,93.4917 360.96191,106.68945 378.9082,106.68945 378.9082,114.70996 360.96191,114.70996 360.96191,127.62012 
		383.11328,127.62012 383.11328,135.78613 352.83008,135.78613 	"/>
	<path clip-path="url(#SVGID_2_)" fill="#4D4D4F" d="M410.88281,118.57617h-10.7959v17.20996h-8.20117V85.32275h18.2959
		c11.07617,0,16.4043,4.7417,16.4043,16.26416c0,7.58203-2.66406,11.95801-7.6416,14.51074l7.6416,19.68848h-9.04297
		L410.88281,118.57617z M410.18164,93.4917h-10.09473v16.91553h10.23633c5.67773,0,7.78125-3.49902,7.78125-8.67578
		C418.10449,96.18945,415.51074,93.4917,410.18164,93.4917"/>
	<polygon clip-path="url(#SVGID_2_)" fill="#4D4D4F" points="435.04785,135.78613 435.04785,85.32324 443.25,85.32324 
		443.25,127.5459 462.03809,127.5459 462.03809,135.78613 	"/>
	<path clip-path="url(#SVGID_2_)" fill="#4D4D4F" d="M476.90723,85.32275h16.19434l11.42578,50.46338h-8.27246l-2.66309-9.91797
		h-17.5957l-2.38379,9.91797h-8.27246L476.90723,85.32275z M477.74805,117.62793h14.23242l-5.39941-24.43018h-3.29492
		L477.74805,117.62793z"/>
	<polygon clip-path="url(#SVGID_2_)" fill="#4D4D4F" points="511.54688,85.32275 524.86719,85.32275 540.28711,125.1377 
		541.48145,125.1377 541.48145,85.32275 549.75293,85.32275 549.75293,135.78613 536.78418,135.78613 520.94238,95.9707 
		519.74707,95.9707 519.74707,135.78613 511.54688,135.78613 	"/>
	<path clip-path="url(#SVGID_2_)" fill="#4D4D4F" d="M560.48828,135.78613V85.32275h16.33496
		c15.77344,0,19.4873,8.45996,19.4873,24.35596c0,16.18848-3.29492,26.10742-19.4873,26.10742H560.48828z M576.82324,93.4917
		h-8.2002v34.12939h8.2002c9.60254,0,11.00488-7.51465,11.00488-17.94238C587.82812,99.32422,586.42578,93.4917,576.82324,93.4917"
		/>
	<path clip-path="url(#SVGID_2_)" d="M263.77148,171.16797c5.23193,0,7.88525-2.91797,7.88525-8.67285
		c0-5.50488-2.43213-7.95898-7.88525-7.95898h-9.271v25.68848h1.88428v-8.85645c0-0.11133,0.08984-0.2002,0.19971-0.2002H263.77148z
		 M256.38477,169.15918v-12.6543c0-0.11035,0.08984-0.2002,0.19971-0.2002h7.18701c4.09912,0,5.92725,1.90918,5.92725,6.19043
		c0,4.55469-1.99414,6.86426-5.92725,6.86426h-7.18701C256.47461,169.35938,256.38477,169.26855,256.38477,169.15918"/>
	<path clip-path="url(#SVGID_2_)" d="M291.65869,180.56152l0.09082-1.57031c-1.02783-0.14648-2.29395-0.51855-2.42188-1.84082
		l-0.00098-9.78906c0-4.00391-1.7041-5.78906-5.52637-5.78906c-2.5376,0-6.26367,0.54883-7.12402,0.68066l0.12012,1.58887
		c0.90723-0.10938,4.55518-0.53711,6.9292-0.53711c2.51709,0,3.79297,1.36523,3.79297,4.05664v1.68359
		c0,0.10352-0.07812,0.18945-0.18018,0.19922l-6.36279,0.63672c-3.73193,0.33008-5.32422,1.90527-5.32422,5.26758
		c0,3.51562,1.69727,5.45117,4.7793,5.45117c3.72998,0,7.07373-1.42871,7.10791-1.44336
		c0.0249-0.01172,0.05176-0.0166,0.0791-0.0166c0.05566,0,0.10986,0.02344,0.14893,0.06641
		C288.59961,180.13965,289.73535,180.53809,291.65869,180.56152 M287.51855,177.54395c0,0.08398-0.05225,0.15918-0.13086,0.18848
		c-0.03418,0.01172-3.51416,1.28418-6.69531,1.28418c-1.98193,0-3.11914-1.42383-3.11914-3.90625
		c0-2.36035,1.18604-3.6123,3.62646-3.83008l6.10059-0.56152c0.00635,0,0.01221-0.00098,0.01807-0.00098
		c0.05029,0,0.09814,0.01953,0.13525,0.05371c0.04102,0.03613,0.06494,0.09082,0.06494,0.14648V177.54395z"/>
	<path clip-path="url(#SVGID_2_)" d="M331.75586,161.57227c-2.7627,0-5.93945,1.64551-5.97168,1.66309
		c-0.02832,0.01465-0.05957,0.02246-0.0918,0.02246c-0.03613,0-0.07129-0.00977-0.10352-0.02832
		c-0.06055-0.03613-0.09668-0.10156-0.09668-0.1709v-1.14844h-1.8457v18.31543h1.8457v-15.22168
		c0-0.07422,0.04102-0.1416,0.10742-0.17676c0.12402-0.06543,3.06934-1.59473,5.89355-1.59473
		c3.82422,0,4.50586,1.96484,4.50586,7.49902v9.49414h1.80859v-9.5332C337.80762,163.53223,336.50684,161.57227,331.75586,161.57227
		"/>
	<path clip-path="url(#SVGID_2_)" d="M351.07227,161.57227c-5.05371,0-7.51074,3.12988-7.51074,9.56934
		c0,6.68555,2.0459,9.42578,7.06348,9.45801c2.53027,0,6.09961-0.40137,6.94141-0.50098l-0.05957-1.47852
		c-0.87207,0.06836-4.29883,0.32227-6.65918,0.32227c-3.78711,0-5.40332-2.0752-5.40332-6.93848
		c0-0.11035,0.08984-0.2002,0.2002-0.2002h12.53613l0.06543-1.60547C358.24609,164.31641,355.9668,161.57227,351.07227,161.57227
		 M356.20117,170.33105h-10.55664c-0.11035,0-0.2002-0.08984-0.2002-0.2002c0-4.69238,1.84082-6.97363,5.62793-6.97363
		c3.73535,0,5.3291,2.08594,5.3291,6.97363C356.40137,170.24121,356.31152,170.33105,356.20117,170.33105"/>
	<path clip-path="url(#SVGID_2_)" d="M366.00977,164.56738c-0.0293,0-0.05957-0.00684-0.08887-0.02051
		c-0.06836-0.0332-0.11133-0.10352-0.11133-0.17871v-2.45801h-1.8457v18.31543h1.8457v-13.76367
		c0-0.06738,0.03418-0.13086,0.0918-0.16699c0.03223-0.02246,3.2666-2.09766,6.75781-2.83887v-1.87695
		c-3.61426,0.74316-6.49805,2.9248-6.52734,2.94727C366.0957,164.55371,366.05273,164.56738,366.00977,164.56738"/>
	<path clip-path="url(#SVGID_2_)" d="M384.59082,167.47266c0,8.31445,1.51074,13.12695,9.23242,13.12695
		c2.56445,0,6.02832-0.63379,6.8291-0.78613l-0.0918-1.70215c-0.90234,0.13672-4.37695,0.64355-6.51172,0.64355
		c-6.30859,0-7.46191-3.7998-7.46191-11.28223c0-7.62891,1.14746-11.50293,7.42383-11.50293
		c2.38281,0,5.67969,0.52832,6.55371,0.6748l0.12207-1.7373c-0.75-0.15332-3.86816-0.74609-6.86328-0.74609
		C386.10156,154.16113,384.59082,159.04199,384.59082,167.47266"/>
	<path clip-path="url(#SVGID_2_)" d="M437.59863,177.20605c0,0.07129-0.03809,0.13672-0.09961,0.17285
		c-0.11133,0.06543-2.77441,1.59961-5.60352,1.59961c-4.09668,0-4.50488-2.19238-4.50488-7.57422v-9.49512h-1.80859v9.57031
		c0,7.33105,1.18848,9.12109,6.05273,9.12109c2.75488,0,5.63477-1.6416,5.66406-1.6582
		c0.03027-0.01758,0.06543-0.02637,0.09961-0.02637c0.03516,0,0.06934,0.00879,0.09961,0.02734
		c0.0625,0.03516,0.10059,0.10059,0.10059,0.17285v1.10938h1.80859v-18.31641h-1.80859V177.20605z"/>
	<path clip-path="url(#SVGID_2_)" d="M454.84375,161.57227c-2.7627,0-5.94043,1.64551-5.97266,1.66309
		c-0.02832,0.01465-0.06055,0.02246-0.0918,0.02246c-0.03613,0-0.07227-0.00977-0.10352-0.02832
		c-0.06055-0.03613-0.09668-0.10156-0.09668-0.1709v-1.14844h-1.84473v18.31543h1.84473v-15.22168
		c0-0.07422,0.04102-0.1416,0.10742-0.17676c0.12402-0.06543,3.07129-1.59473,5.89453-1.59473
		c3.82422,0,4.50488,1.96484,4.50488,7.49902v9.49414h1.80957v-9.5332C460.89551,163.53223,459.59473,161.57227,454.84375,161.57227
		"/>
	<path clip-path="url(#SVGID_2_)" d="M588.07617,165.27734c-1.60938,0-3.7168,0.49414-6.2627,1.46875
		c-0.25781,0.09863-0.27246,0.10352-0.32324,0.10352c-0.05273,0-0.10449-0.02051-0.1416-0.05762
		c-0.03809-0.03809-0.05957-0.08887-0.05957-0.14258c0.03613-6.01855,2.61914-9.33398,7.27344-9.33398
		c2.67383,0,5.45801,0.32812,6.22363,0.4248l0.18262-1.73535c-0.77051-0.09961-3.72852-0.45801-6.40625-0.45801
		c-6.15137,0-9.26855,4.16406-9.26855,12.37598c0,8.41211,2.84082,12.67676,8.44434,12.67676
		c5.39941,0,8.37207-2.82617,8.37207-7.95898C596.11035,167.75488,593.40723,165.27734,588.07617,165.27734 M587.73828,178.82812
		c-4.15625,0-6.39941-3.48535-6.4873-10.0791c-0.00098-0.08105,0.04688-0.15527,0.12207-0.1875
		c0.0332-0.01367,3.43945-1.43652,6.54785-1.54883c4.05469,0,6.19336,1.94629,6.19336,5.62793
		C594.11426,176.63086,591.85059,178.82812,587.73828,178.82812"/>
</g>
</svg>
